<svg xmlns="http://www.w3.org/2000/svg" xmlns:xlink="http://www.w3.org/1999/xlink" width="500" zoomAndPan="magnify" viewBox="0 0 375 374.999991" height="500" preserveAspectRatio="xMidYMid meet" version="1.2"><defs/><g id="5fb4de643b"><rect x="0" width="375" y="0" height="374.999991" style="fill:#ffffff;fill-opacity:1;stroke:none;"/><rect x="0" width="375" y="0" height="374.999991" style="fill:#eeeeee;fill-opacity:1;stroke:none;"/><g style="fill:#000000;fill-opacity:1;"><g transform="translate(164.402159, 246.502577)"><path style="stroke:none" d="M 128.765625 14.828125 C 133.878906 14.828125 138.613281 15.234375 142.96875 16.046875 C 147.332031 16.859375 151.460938 18.109375 155.359375 19.796875 C 159.253906 21.484375 163.035156 23.632812 166.703125 26.25 C 170.367188 28.875 174.003906 31.988281 177.609375 35.59375 L 176.90625 36.46875 C 173.539062 33.5625 169.703125 31.117188 165.390625 29.140625 C 161.085938 27.160156 156.609375 25.617188 151.953125 24.515625 C 147.304688 23.410156 142.628906 22.625 137.921875 22.15625 C 133.210938 21.6875 128.703125 21.453125 124.390625 21.453125 C 117.765625 21.453125 111.253906 21.859375 104.859375 22.671875 C 98.460938 23.492188 92.003906 24.425781 85.484375 25.46875 L 74.5 27.21875 C 68.101562 28.257812 61.675781 29.1875 55.21875 30 C 48.757812 30.820312 42.21875 31.234375 35.59375 31.234375 C 29.425781 31.234375 23.375 30.359375 17.4375 28.609375 C 11.507812 26.867188 6.21875 24.28125 1.5625 20.84375 C -3.082031 17.414062 -6.828125 13.113281 -9.671875 7.9375 C -12.523438 2.757812 -13.953125 -3.257812 -13.953125 -10.125 C -13.953125 -14.3125 -13.367188 -18.410156 -12.203125 -22.421875 C -11.046875 -26.429688 -9.363281 -30.125 -7.15625 -33.5 C -4.945312 -36.875 -2.242188 -39.894531 0.953125 -42.5625 C 4.148438 -45.238281 7.726562 -47.332031 11.6875 -48.84375 L 11.6875 -74.671875 C 11.6875 -76.992188 11.25 -79.203125 10.375 -81.296875 C 9.507812 -83.390625 7.851562 -84.785156 5.40625 -85.484375 L 28.4375 -85.484375 C 25.875 -84.785156 24.1875 -83.390625 23.375 -81.296875 C 22.5625 -79.203125 22.15625 -76.992188 22.15625 -74.671875 L 22.15625 -51.46875 C 23.4375 -51.8125 24.71875 -52.039062 26 -52.15625 C 27.28125 -52.28125 28.554688 -52.34375 29.828125 -52.34375 C 36.109375 -52.34375 42.039062 -51.320312 47.625 -49.28125 C 53.207031 -47.25 58.210938 -44.023438 62.640625 -39.609375 L 62.640625 -74.84375 C 62.640625 -77.175781 62.203125 -79.359375 61.328125 -81.390625 C 60.453125 -83.421875 58.796875 -84.785156 56.359375 -85.484375 L 79.390625 -85.484375 C 76.828125 -84.785156 75.140625 -83.421875 74.328125 -81.390625 C 73.515625 -79.359375 73.109375 -77.175781 73.109375 -74.84375 L 73.109375 -10.8125 C 73.109375 -8.488281 73.570312 -6.28125 74.5 -4.1875 C 75.425781 -2.09375 77.054688 -0.695312 79.390625 0 L 56.359375 0 C 58.796875 -0.695312 60.453125 -2.117188 61.328125 -4.265625 C 62.203125 -6.421875 62.640625 -8.660156 62.640625 -10.984375 L 62.640625 -37.6875 C 58.679688 -41.519531 54.203125 -44.570312 49.203125 -46.84375 C 44.203125 -49.113281 38.910156 -50.25 33.328125 -50.25 C 31.347656 -50.25 29.457031 -50.21875 27.65625 -50.15625 C 25.851562 -50.101562 24.019531 -49.84375 22.15625 -49.375 L 22.15625 -10.8125 C 22.15625 -8.488281 22.59375 -6.28125 23.46875 -4.1875 C 24.34375 -2.09375 26 -0.695312 28.4375 0 L 5.40625 0 C 7.851562 -0.695312 9.507812 -2.117188 10.375 -4.265625 C 11.25 -6.421875 11.6875 -8.660156 11.6875 -10.984375 L 11.6875 -45.890625 C 4.363281 -42.160156 -0.804688 -36.863281 -3.828125 -30 C -6.859375 -23.144531 -8.375 -15.820312 -8.375 -8.03125 C -8.375 -1.632812 -7.0625 3.945312 -4.4375 8.71875 C -1.820312 13.488281 1.601562 17.441406 5.84375 20.578125 C 10.09375 23.722656 14.976562 26.050781 20.5 27.5625 C 26.019531 29.070312 31.632812 29.828125 37.34375 29.828125 C 44.3125 29.828125 51.082031 29.21875 57.65625 28 C 64.226562 26.78125 70.832031 25.359375 77.46875 23.734375 L 88.625 20.9375 C 95.257812 19.3125 101.863281 17.882812 108.4375 16.65625 C 115.007812 15.4375 121.785156 14.828125 128.765625 14.828125 Z M 128.765625 14.828125 "/></g></g><g style="fill:#000000;fill-opacity:1;"><g transform="translate(102.443098, 205.917135)"><path style="stroke:none" d="M 81.828125 -5.9375 C 81.828125 -0.113281 80.894531 5.175781 79.03125 9.9375 C 77.175781 14.707031 74.53125 18.78125 71.09375 22.15625 C 67.664062 25.53125 63.566406 28.144531 58.796875 30 C 54.023438 31.863281 48.734375 32.796875 42.921875 32.796875 C 37.679688 32.796875 32.675781 31.984375 27.90625 30.359375 C 23.144531 28.734375 18.957031 26.378906 15.34375 23.296875 C 11.738281 20.210938 8.859375 16.457031 6.703125 12.03125 C 4.554688 7.613281 3.484375 2.613281 3.484375 -2.96875 C 3.484375 -8.3125 4.414062 -12.898438 6.28125 -16.734375 C 8.144531 -20.578125 10.675781 -23.75 13.875 -26.25 C 17.070312 -28.757812 20.820312 -30.625 25.125 -31.84375 C 29.425781 -33.0625 34.019531 -33.671875 38.90625 -33.671875 L 38.90625 -32.96875 C 34.71875 -32.738281 30.847656 -31.722656 27.296875 -29.921875 C 23.753906 -28.117188 20.734375 -25.765625 18.234375 -22.859375 C 15.734375 -19.953125 13.785156 -16.632812 12.390625 -12.90625 C 10.992188 -9.1875 10.296875 -5.234375 10.296875 -1.046875 C 10.296875 3.722656 11.078125 8.054688 12.640625 11.953125 C 14.210938 15.847656 16.394531 19.191406 19.1875 21.984375 C 21.976562 24.773438 25.351562 26.925781 29.3125 28.4375 C 33.269531 29.945312 37.628906 30.703125 42.390625 30.703125 C 51.816406 30.703125 59.175781 27.9375 64.46875 22.40625 C 69.757812 16.882812 72.40625 9.414062 72.40625 0 C 72.40625 -5 71.269531 -9.5625 69 -13.6875 C 66.726562 -17.820312 63.878906 -21.71875 60.453125 -25.375 C 57.023438 -29.039062 53.300781 -32.5625 49.28125 -35.9375 C 45.269531 -39.3125 41.546875 -42.6875 38.109375 -46.0625 C 34.679688 -49.4375 31.832031 -52.925781 29.5625 -56.53125 C 27.300781 -60.132812 26.171875 -64.03125 26.171875 -68.21875 C 26.171875 -71.238281 26.722656 -73.96875 27.828125 -76.40625 C 28.929688 -78.851562 30.441406 -80.890625 32.359375 -82.515625 C 34.285156 -84.148438 36.523438 -85.398438 39.078125 -86.265625 C 41.640625 -87.140625 44.375 -87.578125 47.28125 -87.578125 C 48.445312 -87.578125 49.582031 -87.460938 50.6875 -87.234375 C 51.789062 -87.003906 52.863281 -86.769531 53.90625 -86.53125 L 58.265625 -85.140625 C 60.597656 -84.441406 62.8125 -84.09375 64.90625 -84.09375 C 66.53125 -84.09375 67.804688 -84.734375 68.734375 -86.015625 L 67.515625 -65.78125 C 67.054688 -68.101562 66.242188 -70.484375 65.078125 -72.921875 C 63.910156 -75.367188 62.425781 -77.582031 60.625 -79.5625 C 58.820312 -81.539062 56.785156 -83.195312 54.515625 -84.53125 C 52.253906 -85.863281 49.785156 -86.53125 47.109375 -86.53125 C 42.804688 -86.53125 39.113281 -85.367188 36.03125 -83.046875 C 32.945312 -80.722656 31.40625 -77.234375 31.40625 -72.578125 C 31.40625 -68.972656 32.65625 -65.507812 35.15625 -62.1875 C 37.65625 -58.875 40.765625 -55.617188 44.484375 -52.421875 C 48.210938 -49.222656 52.253906 -45.96875 56.609375 -42.65625 C 60.972656 -39.34375 65.015625 -35.820312 68.734375 -32.09375 C 72.460938 -28.375 75.578125 -24.363281 78.078125 -20.0625 C 80.578125 -15.757812 81.828125 -11.050781 81.828125 -5.9375 Z M 81.828125 -5.9375 "/></g></g><g style="fill:#000000;fill-opacity:1;"><g transform="translate(187.499992, 148.906118)"><path style="stroke:none" d="M 5.125 0.140625 C 4.195312 0.140625 3.394531 -0.0351562 2.71875 -0.390625 C 2.050781 -0.753906 1.539062 -1.226562 1.1875 -1.8125 C 0.84375 -2.40625 0.671875 -3.019531 0.671875 -3.65625 L 0.671875 -3.796875 L 3.5 -3.796875 L 3.5 -3.671875 C 3.5 -3.273438 3.640625 -2.910156 3.921875 -2.578125 C 4.210938 -2.253906 4.628906 -2.09375 5.171875 -2.09375 C 5.648438 -2.09375 6.03125 -2.210938 6.3125 -2.453125 C 6.59375 -2.691406 6.734375 -3.007812 6.734375 -3.40625 C 6.734375 -3.757812 6.609375 -4.039062 6.359375 -4.25 C 6.109375 -4.46875 5.800781 -4.617188 5.4375 -4.703125 L 4.125 -4.96875 C 3.351562 -5.132812 2.628906 -5.457031 1.953125 -5.9375 C 1.285156 -6.425781 0.953125 -7.222656 0.953125 -8.328125 C 0.953125 -9.035156 1.125 -9.648438 1.46875 -10.171875 C 1.820312 -10.691406 2.304688 -11.085938 2.921875 -11.359375 C 3.535156 -11.628906 4.234375 -11.765625 5.015625 -11.765625 C 5.898438 -11.765625 6.664062 -11.59375 7.3125 -11.25 C 7.96875 -10.914062 8.457031 -10.472656 8.78125 -9.921875 C 9.113281 -9.378906 9.28125 -8.8125 9.28125 -8.21875 L 9.28125 -8.140625 L 6.46875 -8.140625 L 6.46875 -8.1875 C 6.46875 -8.539062 6.34375 -8.867188 6.09375 -9.171875 C 5.84375 -9.472656 5.445312 -9.625 4.90625 -9.625 C 4.488281 -9.625 4.15625 -9.507812 3.90625 -9.28125 C 3.664062 -9.050781 3.546875 -8.75 3.546875 -8.375 C 3.546875 -8.007812 3.679688 -7.722656 3.953125 -7.515625 C 4.234375 -7.304688 4.5625 -7.164062 4.9375 -7.09375 L 6.28125 -6.796875 C 7.144531 -6.609375 7.882812 -6.253906 8.5 -5.734375 C 9.113281 -5.222656 9.421875 -4.472656 9.421875 -3.484375 C 9.421875 -2.753906 9.234375 -2.113281 8.859375 -1.5625 C 8.492188 -1.007812 7.984375 -0.585938 7.328125 -0.296875 C 6.671875 -0.00390625 5.9375 0.140625 5.125 0.140625 Z M 5.125 0.140625 "/></g></g><g style="fill:#000000;fill-opacity:1;"><g transform="translate(204.192057, 148.906118)"><path style="stroke:none" d="M 10.359375 -11.53125 L 10.359375 0 L 7.765625 0 L 7.765625 -4.78125 L 3.421875 -4.78125 L 3.421875 0 L 0.859375 0 L 0.859375 -11.53125 L 3.421875 -11.53125 L 3.421875 -6.796875 L 7.765625 -6.796875 L 7.765625 -11.53125 Z M 10.359375 -11.53125 "/></g></g><g style="fill:#000000;fill-opacity:1;"><g transform="translate(222.119867, 148.906118)"><path style="stroke:none" d="M 7.421875 -2.671875 L 3.71875 -2.671875 L 2.90625 0 L 0.296875 0 L 4.40625 -11.53125 L 6.796875 -11.53125 L 10.859375 0 L 8.265625 0 Z M 6.796875 -4.625 L 5.609375 -8.359375 L 5.5 -8.359375 L 4.359375 -4.625 Z M 6.796875 -4.625 "/></g></g><g style="fill:#000000;fill-opacity:1;"><g transform="translate(239.932342, 148.906118)"><path style="stroke:none" d="M 10.359375 -11.53125 L 10.359375 0 L 7.765625 0 L 7.765625 -4.78125 L 3.421875 -4.78125 L 3.421875 0 L 0.859375 0 L 0.859375 -11.53125 L 3.421875 -11.53125 L 3.421875 -6.796875 L 7.765625 -6.796875 L 7.765625 -11.53125 Z M 10.359375 -11.53125 "/></g></g><g style="fill:#000000;fill-opacity:1;"><g transform="translate(257.860152, 148.906118)"><path style="stroke:none" d="M 5.125 0.140625 C 4.195312 0.140625 3.394531 -0.0351562 2.71875 -0.390625 C 2.050781 -0.753906 1.539062 -1.226562 1.1875 -1.8125 C 0.84375 -2.40625 0.671875 -3.019531 0.671875 -3.65625 L 0.671875 -3.796875 L 3.5 -3.796875 L 3.5 -3.671875 C 3.5 -3.273438 3.640625 -2.910156 3.921875 -2.578125 C 4.210938 -2.253906 4.628906 -2.09375 5.171875 -2.09375 C 5.648438 -2.09375 6.03125 -2.210938 6.3125 -2.453125 C 6.59375 -2.691406 6.734375 -3.007812 6.734375 -3.40625 C 6.734375 -3.757812 6.609375 -4.039062 6.359375 -4.25 C 6.109375 -4.46875 5.800781 -4.617188 5.4375 -4.703125 L 4.125 -4.96875 C 3.351562 -5.132812 2.628906 -5.457031 1.953125 -5.9375 C 1.285156 -6.425781 0.953125 -7.222656 0.953125 -8.328125 C 0.953125 -9.035156 1.125 -9.648438 1.46875 -10.171875 C 1.820312 -10.691406 2.304688 -11.085938 2.921875 -11.359375 C 3.535156 -11.628906 4.234375 -11.765625 5.015625 -11.765625 C 5.898438 -11.765625 6.664062 -11.59375 7.3125 -11.25 C 7.96875 -10.914062 8.457031 -10.472656 8.78125 -9.921875 C 9.113281 -9.378906 9.28125 -8.8125 9.28125 -8.21875 L 9.28125 -8.140625 L 6.46875 -8.140625 L 6.46875 -8.1875 C 6.46875 -8.539062 6.34375 -8.867188 6.09375 -9.171875 C 5.84375 -9.472656 5.445312 -9.625 4.90625 -9.625 C 4.488281 -9.625 4.15625 -9.507812 3.90625 -9.28125 C 3.664062 -9.050781 3.546875 -8.75 3.546875 -8.375 C 3.546875 -8.007812 3.679688 -7.722656 3.953125 -7.515625 C 4.234375 -7.304688 4.5625 -7.164062 4.9375 -7.09375 L 6.28125 -6.796875 C 7.144531 -6.609375 7.882812 -6.253906 8.5 -5.734375 C 9.113281 -5.222656 9.421875 -4.472656 9.421875 -3.484375 C 9.421875 -2.753906 9.234375 -2.113281 8.859375 -1.5625 C 8.492188 -1.007812 7.984375 -0.585938 7.328125 -0.296875 C 6.671875 -0.00390625 5.9375 0.140625 5.125 0.140625 Z M 5.125 0.140625 "/></g></g><g style="fill:#000000;fill-opacity:1;"><g transform="translate(274.552217, 148.906118)"><path style="stroke:none" d="M 7.421875 -2.671875 L 3.71875 -2.671875 L 2.90625 0 L 0.296875 0 L 4.40625 -11.53125 L 6.796875 -11.53125 L 10.859375 0 L 8.265625 0 Z M 6.796875 -4.625 L 5.609375 -8.359375 L 5.5 -8.359375 L 4.359375 -4.625 Z M 6.796875 -4.625 "/></g></g><g style="fill:#000000;fill-opacity:1;"><g transform="translate(292.364693, 148.906118)"><path style="stroke:none" d="M 0.171875 -11.53125 L 2.734375 -11.53125 L 4.546875 -3.390625 L 4.65625 -3.390625 L 7.09375 -11.53125 L 9.328125 -11.53125 L 11.765625 -3.390625 L 11.875 -3.390625 L 13.703125 -11.53125 L 16.265625 -11.53125 L 13.328125 0.015625 L 10.296875 0.015625 L 8.265625 -6.90625 L 8.15625 -6.90625 L 6.109375 0.015625 L 3.078125 0.015625 Z M 0.171875 -11.53125 "/></g></g><g style="fill:#000000;fill-opacity:1;"><g transform="translate(315.515597, 148.906118)"><path style="stroke:none" d="M 7.421875 -2.671875 L 3.71875 -2.671875 L 2.90625 0 L 0.296875 0 L 4.40625 -11.53125 L 6.796875 -11.53125 L 10.859375 0 L 8.265625 0 Z M 6.796875 -4.625 L 5.609375 -8.359375 L 5.5 -8.359375 L 4.359375 -4.625 Z M 6.796875 -4.625 "/></g></g><g style="fill:#000000;fill-opacity:1;"><g transform="translate(333.328072, 148.906118)"><path style="stroke:none" d="M 4.75 -4.03125 L 3.40625 -4.03125 L 3.40625 0 L 0.859375 0 L 0.859375 -11.53125 L 5.234375 -11.53125 C 6.148438 -11.53125 6.921875 -11.351562 7.546875 -11 C 8.179688 -10.65625 8.648438 -10.191406 8.953125 -9.609375 C 9.265625 -9.035156 9.421875 -8.414062 9.421875 -7.75 C 9.421875 -7 9.234375 -6.320312 8.859375 -5.71875 C 8.492188 -5.125 7.945312 -4.679688 7.21875 -4.390625 L 9.6875 0 L 7 0 Z M 3.40625 -6.125 L 4.828125 -6.125 C 5.421875 -6.125 5.921875 -6.25 6.328125 -6.5 C 6.734375 -6.75 6.9375 -7.164062 6.9375 -7.75 C 6.9375 -8.3125 6.734375 -8.707031 6.328125 -8.9375 C 5.929688 -9.175781 5.429688 -9.296875 4.828125 -9.296875 L 3.40625 -9.296875 Z M 3.40625 -6.125 "/></g></g></g></svg>